# xmcd CD database file
#
# Track frame offsets:
#	150
#	36768
#	74197
#	110158
#	131218
#	171674
#
# Disc length: 2886 seconds
#
# Revision: 1
# Processed by: cddbd v1.5.1PL0 Copyright (c) Steve Scherf et al.
# Submitted via: CDex 1.50beta10
#
DISCID=650b4406
DTITLE=Dudu Pukwana - Diamond Express
DYEAR=1977
DGENRE=Jazz
TTITLE0=Ubaqile (See Saw)
TTITLE1=Diamond Express
TTITLE2=Madodana (The Young Ones)
TTITLE3=Tete And Barbs In My Mind
TTITLE4=Bird Lives
TTITLE5=Audio Track 6
EXTD=YEAR: 1977
EXTT0=
EXTT1=
EXTT2=
EXTT3=
EXTT4=
EXTT5=
PLAYORDER=
